<svg   viewBox="0 0 20 19" fill="none" xmlns="http://www.w3.org/2000/svg">
    <path d="M9.93834 1.71843C12.4266 1.71843 12.7187 1.72952 13.7022 1.77389C14.6117 1.81456 15.1035 1.96615 15.4325 2.09556C15.8688 2.26563 16.1794 2.46529 16.5048 2.79065C16.8301 3.11601 17.0335 3.42659 17.1999 3.86287C17.3256 4.19193 17.4809 4.68367 17.5215 5.59321C17.5659 6.57669 17.577 6.86878 17.577 9.35707C17.577 11.8454 17.5659 12.1374 17.5215 13.1209C17.4809 14.0305 17.3293 14.5222 17.1999 14.8513C17.0298 15.2875 16.8301 15.5981 16.5048 15.9235C16.1794 16.2488 15.8688 16.4522 15.4325 16.6186C15.1035 16.7443 14.6117 16.8996 13.7022 16.9402C12.7187 16.9846 12.4266 16.9957 9.93834 16.9957C7.45005 16.9957 7.15796 16.9846 6.17448 16.9402C5.26494 16.8996 4.7732 16.748 4.44414 16.6186C4.00786 16.4485 3.69728 16.2488 3.37192 15.9235C3.04656 15.5981 2.8432 15.2875 2.67682 14.8513C2.55112 14.5222 2.39583 14.0305 2.35516 13.1209C2.31079 12.1374 2.2997 11.8454 2.2997 9.35707C2.2997 6.86878 2.31079 6.57669 2.35516 5.59321C2.39583 4.68367 2.54742 4.19193 2.67682 3.86287C2.8469 3.42659 3.04656 3.11601 3.37192 2.79065C3.69728 2.46529 4.00786 2.26194 4.44414 2.09556C4.7732 1.96985 5.26494 1.81456 6.17448 1.77389C7.15796 1.72583 7.45375 1.71843 9.93834 1.71843ZM9.93834 0.039856C7.40938 0.039856 7.09141 0.0509479 6.09684 0.0953155C5.10596 0.139683 4.42935 0.298667 3.83778 0.5279C3.22403 0.764528 2.7064 1.08619 2.18878 1.60382C1.67116 2.12144 1.35319 2.64276 1.11286 3.25281C0.883629 3.84438 0.724644 4.52099 0.680277 5.51557C0.635909 6.50644 0.624817 6.82441 0.624817 9.35337C0.624817 11.8823 0.635909 12.2003 0.680277 13.1949C0.724644 14.1857 0.883629 14.8624 1.11286 15.4576C1.34949 16.0714 1.67116 16.589 2.18878 17.1066C2.7064 17.6242 3.22772 17.9422 3.83778 18.1825C4.42935 18.4118 5.10596 18.5708 6.10053 18.6151C7.09511 18.6595 7.40938 18.6706 9.94204 18.6706C12.4747 18.6706 12.789 18.6595 13.7835 18.6151C14.7744 18.5708 15.451 18.4118 16.0463 18.1825C16.6601 17.9459 17.1777 17.6242 17.6953 17.1066C18.2129 16.589 18.5309 16.0677 18.7712 15.4576C19.0004 14.8661 19.1594 14.1894 19.2038 13.1949C19.2482 12.2003 19.2593 11.886 19.2593 9.35337C19.2593 6.82071 19.2482 6.50644 19.2038 5.51187C19.1594 4.52099 19.0004 3.84438 18.7712 3.24912C18.5346 2.63536 18.2129 2.11774 17.6953 1.60012C17.1777 1.0825 16.6564 0.764528 16.0463 0.524203C15.4547 0.29497 14.7781 0.135986 13.7835 0.0916182C12.7853 0.0509479 12.4673 0.039856 9.93834 0.039856Z" fill="#191B21"/>
    <path d="M9.93834 4.57272C7.29846 4.57272 5.15402 6.71346 5.15402 9.35704C5.15402 12.0006 7.29476 14.1413 9.93834 14.1413C12.5819 14.1413 14.7226 12.0006 14.7226 9.35704C14.7226 6.71346 12.5819 4.57272 9.93834 4.57272ZM9.93834 12.4591C8.22279 12.4591 6.8326 11.0689 6.8326 9.35334C6.8326 7.63779 8.22279 6.2476 9.93834 6.2476C11.6539 6.2476 13.0441 7.63779 13.0441 9.35334C13.0441 11.0689 11.6539 12.4591 9.93834 12.4591Z" fill="#191B21"/>
    <path d="M14.9112 5.49709C15.5279 5.49709 16.0278 4.99718 16.0278 4.3805C16.0278 3.76383 15.5279 3.26392 14.9112 3.26392C14.2945 3.26392 13.7946 3.76383 13.7946 4.3805C13.7946 4.99718 14.2945 5.49709 14.9112 5.49709Z" fill="#191B21"/>
</svg>
