<svg viewBox="0 0 178 175" fill="none" xmlns="http://www.w3.org/2000/svg"><g clip-path="url(#clip0)" fill="#191B21"><path d="M121.535 47.5574C129.714 37.65 135.534 25.8154 137.203 22.3955 133.928 23.9912 124.008 29.0723 114.276 37.2117 117.916 37.2117 120.604 37.2117 121.725 37.2117 121.71 40.0959 121.665 44.2106 121.535 47.5574zM131.229 113.54L116.746 98.6734C119.981 95.4353 123.343 92.4125 126.82 89.6013L124.397 87.1122C122.627 89.4234 120.795 91.6596 118.853 93.8695 118.853 93.8695 113.899 88.7753 113.562 88.4307 111.871 92.2008 109.263 96.4522 106.434 99.9807 106.527 100.078 109.667 103.307 109.667 103.307 107.515 105.305 105.356 107.169 103.103 108.987L105.53 111.484C108.27 107.903 111.217 104.442 114.369 101.116L128.845 115.99C128.479 117.228 128.763 118.603 129.716 119.584 131.092 120.998 133.327 120.998 134.703 119.584 136.079 118.168 136.079 115.876 134.703 114.46 133.764 113.492 132.423 113.186 131.229 113.54zM47.1042 113.54L61.5872 98.6734C58.3524 95.4353 54.9899 92.4125 51.5127 89.6013L53.9366 87.1122C55.7062 89.4234 57.5377 91.6596 59.4805 93.8695 59.4805 93.8695 64.4339 88.7753 64.7711 88.4307 66.4623 92.2008 69.0703 96.4522 71.8987 99.9807 71.8058 100.078 68.6657 103.307 68.6657 103.307 70.818 105.305 72.9776 107.169 75.2302 108.987L72.8027 111.484C70.0635 107.903 67.1166 104.442 63.9637 101.116L49.4879 115.99C49.8542 117.228 49.5699 118.603 48.6168 119.584 47.2408 120.998 45.0065 120.998 43.6305 119.584 42.2546 118.168 42.2546 115.876 43.6305 114.46 44.5709 113.492 45.9104 113.186 47.1042 113.54zM56.4698 37.002C57.1751 37.002 59.9434 37.002 63.92 37.002 54.1863 28.8606 44.2611 23.7871 40.9843 22.1914 42.6537 25.6093 48.4783 37.4383 56.6502 47.3439 56.5245 44.0046 56.4771 40.5473 56.4698 37.002zM88.587 17.7265C88.3337 17.7208 88.0858 17.6946 87.8452 17.6459 88.0621 17.6928 88.3246 17.7283 88.587 17.7265zM89.4429 17.6684C89.4327 17.6704 89.4246 17.6725 89.4144 17.6725 89.4225 17.6704 89.4327 17.6684 89.4429 17.6684zM76.998 23.5945C77.035 23.585 77.072 23.5774 77.109 23.5698 77.072 23.5774 77.035 23.585 76.998 23.5945zM75.9318 17.9621C75.947 17.9148 75.966 17.8674 75.985 17.822 75.966 17.8674 75.9489 17.9148 75.9318 17.9621zM89.4089 17.6721C89.3536 17.6797 89.2983 17.6873 89.2412 17.6949 89.302 17.6892 89.3555 17.6816 89.4089 17.6721zM111.129 24.4388C111.249 24.4425 111.371 24.45 111.495 24.4631 111.371 24.4481 111.249 24.4406 111.129 24.4388zM110.908 24.4388C110.551 24.45 110.22 24.5137 109.932 24.6298 110.218 24.5155 110.549 24.45 110.908 24.4388zM87.6247 17.5953C87.6599 17.6048 87.6987 17.6143 87.7394 17.6238 87.7005 17.6143 87.6636 17.6048 87.6247 17.5953zM87.6046 17.5903C87.5639 17.5789 87.5232 17.5675 87.4843 17.5561 87.5195 17.5675 87.5602 17.5789 87.6046 17.5903zM99.8461 23.5117C100.107 23.5248 100.362 23.5679 100.601 23.6409 100.364 23.5679 100.109 23.5248 99.8461 23.5117zM87.6298 17.5964C87.6208 17.5941 87.6119 17.5919 87.6029 17.5897 87.6119 17.5919 87.6208 17.5941 87.6298 17.5964zM66.0174 24.45C65.9804 24.4538 65.9434 24.4576 65.9082 24.4614 65.9452 24.4595 65.9804 24.4538 66.0174 24.45z"/><path d="M89.4399 17.6687C89.4878 17.6611 89.5339 17.6535 89.5818 17.6441C89.5357 17.6516 89.4896 17.6592 89.4399 17.6687Z"/><path d="M111.975 24.5437C111.987 24.5474 112 24.5474 112.013 24.5512C113.721 17.7882 113.93 17.3743 101.069 17.3743C101.073 17.3781 101.076 17.3837 101.08 17.3875C100.107 16.348 97.2309 16.5484 90.0796 17.5279L89.9866 19.0281C99.2447 17.8369 99.5126 17.9886 98.9677 21.8711C96.4381 21.4516 93.4256 21.1706 89.8554 21.1257L90.0796 17.5148L90.0085 17.5335C90.0085 17.5335 89.8572 17.5879 89.6003 17.6403C91.6232 17.2133 93.1468 15.3797 93.1468 13.181C93.1468 11.0478 91.7307 9.28733 89.7734 8.76293C89.7734 8.64119 89.7716 5.48542 89.7716 5.18763L92.2319 5.18951V3.04882H89.7734C89.7734 3.04882 89.7734 0.715239 89.7734 0.368759H87.6302V3.04882H85.1735V5.18576H87.6302C87.6302 5.18576 87.632 8.28535 87.632 8.75731C85.7202 9.2274 84.2495 11.0385 84.2495 13.1791C84.2495 15.2 85.5362 16.9099 87.3149 17.5054L87.3185 17.5691C87.3167 17.5354 87.3149 17.5148 87.3149 17.5148C80.2128 16.5709 77.2749 16.2862 76.2617 17.38C76.2635 17.3781 76.2653 17.3762 76.2671 17.3743C64.2717 17.5504 63.4716 17.202 65.3706 24.553C65.4053 24.5455 65.4381 24.5399 65.4727 24.5324C65.0954 24.6111 64.7109 24.7384 64.3391 24.9182C64.9205 26.5233 66.7429 34.1009 67.1603 36.7285H110.234C110.653 34.1009 112.474 26.5233 113.055 24.9182C112.702 24.7459 112.335 24.6223 111.975 24.5437ZM87.7377 17.6234C87.6976 17.6141 87.6593 17.6047 87.6247 17.5953C87.6174 17.5935 87.6101 17.5916 87.6028 17.5897C87.5591 17.5785 87.519 17.5672 87.4844 17.556C87.5245 17.5672 87.5646 17.5785 87.6028 17.5897C87.6101 17.5916 87.6174 17.5935 87.6247 17.5953C87.663 17.6047 87.6994 17.6141 87.7377 17.6234ZM87.4115 19.0056C87.4115 18.9888 87.4097 18.97 87.4097 18.9532L87.5482 21.1276C83.936 21.1856 80.898 21.489 78.3557 21.9348C77.7852 17.8126 78.1588 17.9268 87.4115 19.0056ZM76.7884 23.6522C76.7574 23.6615 76.7264 23.6728 76.6954 23.684C76.7264 23.6728 76.7555 23.6615 76.7884 23.6522ZM76.1632 17.5017C76.1523 17.5167 76.1414 17.5298 76.1304 17.5448C76.1414 17.5298 76.1523 17.5148 76.1632 17.5017ZM76.0557 17.6684C76.0411 17.6965 76.0266 17.7246 76.0138 17.7527C76.0266 17.7246 76.0411 17.6965 76.0557 17.6684ZM75.9828 17.8238C75.9646 17.8688 75.9482 17.9137 75.9318 17.9624C75.9482 17.9137 75.9646 17.8669 75.9828 17.8238ZM75.9026 18.0617C75.8953 18.0879 75.8899 18.1141 75.8826 18.1403C75.8899 18.1141 75.8953 18.086 75.9026 18.0617ZM75.8461 18.3276C75.8461 18.3276 75.8461 18.3295 75.8461 18.3276C75.8461 18.3295 75.8461 18.3276 75.8461 18.3276ZM65.6075 24.5062C65.6549 24.4987 65.7005 24.4893 65.7479 24.4837C65.7005 24.4893 65.6549 24.4968 65.6075 24.5062ZM65.9083 24.4631C65.9447 24.4594 65.9812 24.4538 66.0158 24.4519C65.9793 24.4538 65.9447 24.4594 65.9083 24.4631ZM66.28 24.4369C66.2983 24.4369 66.3183 24.4369 66.3365 24.4369C66.3183 24.4369 66.3001 24.4369 66.28 24.4369ZM66.557 24.4425C66.5789 24.4444 66.599 24.4444 66.619 24.4463C66.599 24.4444 66.5771 24.4425 66.557 24.4425ZM66.8395 24.4687C66.8523 24.4706 66.865 24.4725 66.8778 24.4744C66.865 24.4725 66.8523 24.4706 66.8395 24.4687ZM67.3553 24.5886C67.3808 24.5961 67.4045 24.6073 67.4282 24.6148C67.4045 24.6055 67.3808 24.5961 67.3553 24.5886ZM76.6371 29.2146C76.6662 29.2464 76.7902 29.37 76.8394 29.4206C76.659 30.181 75.5327 32.4022 74.9003 32.9172C73.2692 33.6214 71.0531 33.5371 69.781 32.9172C69.4821 32.6906 68.1189 30.7597 67.6651 29.8588C67.6651 29.8588 67.8145 29.7034 67.9221 29.5948C73.3403 35.4362 73.3403 22.4704 67.9221 28.2838L67.6651 28.0197C68.0114 27.5459 68.2355 27.1188 68.3613 26.7368C68.5144 26.2049 68.4397 25.7161 68.3722 25.452C68.3722 25.452 68.3722 25.452 68.3704 25.452C68.221 25.098 67.9294 24.8358 67.5503 24.6654C67.5685 24.6729 67.5904 24.6804 67.6086 24.6897C66.2053 18.8764 66.4277 19.1255 75.8097 19.1255C75.8407 19.9533 76.0338 21.0152 76.2653 22.3562C72.4236 23.2364 69.9286 24.4388 68.3722 25.452C68.4378 25.7161 68.5144 26.2068 68.3613 26.7368C68.3649 26.7255 68.3686 26.7143 68.3722 26.7031C69.7464 25.7067 72.2377 24.3526 76.4403 23.3787C76.4603 23.5042 76.4822 23.6297 76.5022 23.7589C76.5113 23.7552 76.5204 23.7533 76.5277 23.7496C75.4015 24.2421 74.8821 25.4913 76.8357 27.499C76.7592 27.5777 76.6334 27.7069 76.6334 27.7069C71.6198 22.5491 71.6198 34.3706 76.6371 29.2146ZM76.8922 23.6222C76.9269 23.6129 76.9633 23.6035 76.9998 23.5941C77.0362 23.5848 77.0727 23.5773 77.1091 23.5698C77.0727 23.5773 77.0362 23.5848 76.9998 23.5941C76.9633 23.6035 76.9269 23.6129 76.8922 23.6222ZM87.7067 28.9299C87.765 28.9898 87.8944 29.1209 87.9418 29.1696C87.7377 29.872 86.5895 32.2936 85.7767 32.9191C84.2021 33.4959 82.5583 33.569 80.9108 32.9191C80.2802 32.4041 78.9079 30.1828 78.7256 29.4225C78.7767 29.3719 78.8951 29.2483 78.9279 29.2165C83.9452 34.3724 83.9452 22.5509 78.9279 27.7069C78.9279 27.7069 78.804 27.5796 78.7256 27.499C81.6397 24.6373 79.6642 22.9536 77.1109 23.5716C77.5902 23.4555 78.1187 23.4855 78.5871 23.611C78.558 23.3862 78.5288 23.1709 78.4996 22.963C81.0055 22.521 84.0162 22.2176 87.6138 22.1614L87.6848 23.2795C86.2943 23.714 85.5088 25.0849 87.94 27.3904L87.7049 27.6301C82.4343 21.5752 82.4343 34.9774 87.7067 28.9299ZM87.8452 17.6478C88.0858 17.6965 88.3336 17.7208 88.587 17.7283C88.3245 17.7283 88.0621 17.6927 87.8452 17.6478ZM89.5784 17.6422C89.5328 17.6515 89.4854 17.659 89.4381 17.6665C89.4289 17.6684 89.4217 17.6684 89.4125 17.6703C89.4107 17.6703 89.4089 17.6703 89.4053 17.6721C89.3542 17.6796 89.2995 17.6871 89.2394 17.6946C89.2941 17.6871 89.3506 17.6796 89.4053 17.6721C89.4071 17.6721 89.4089 17.6721 89.4125 17.6703C89.4217 17.6684 89.4289 17.6665 89.4381 17.6665C89.4891 17.659 89.5346 17.6515 89.5784 17.6422ZM98.7563 23.6316C97.4168 24.0174 96.5894 25.3059 98.698 27.4972C98.6233 27.5758 98.4957 27.7051 98.4957 27.7051C93.4785 22.5491 93.4785 34.3706 98.4957 29.2146C98.5285 29.2464 98.6488 29.37 98.698 29.4206C98.5157 30.181 97.3913 32.4022 96.7589 32.9172C94.9802 33.4941 93.4329 33.5222 91.6651 32.9172C90.8523 32.2917 89.7023 29.872 89.5 29.1678C89.5474 29.1191 89.675 28.988 89.7333 28.928C95.0057 34.9755 95.0057 21.5733 89.7333 27.6245L89.5 27.3848C91.9531 25.0606 91.1348 23.6859 89.7224 23.2645L89.7916 22.1539C93.3454 22.1988 96.327 22.4816 98.8219 22.9012C98.7891 23.1371 98.7563 23.3825 98.7235 23.6391C98.7344 23.6372 98.7454 23.6353 98.7563 23.6316ZM101.506 18.734C101.506 18.646 101.503 18.5617 101.495 18.4812C101.503 18.5617 101.506 18.646 101.506 18.734ZM101.49 18.41C101.486 18.3688 101.481 18.3276 101.475 18.2883C101.481 18.3276 101.486 18.3688 101.49 18.41ZM101.452 18.1441C101.444 18.1085 101.435 18.0748 101.428 18.0411C101.435 18.0767 101.444 18.1104 101.452 18.1441ZM101.404 17.9643C101.392 17.9193 101.375 17.8763 101.359 17.8351C101.377 17.8781 101.392 17.9212 101.404 17.9643ZM101.321 17.7414C101.31 17.7171 101.297 17.6927 101.284 17.6703C101.297 17.6946 101.308 17.7171 101.321 17.7414ZM101.206 17.5392C101.198 17.5279 101.189 17.5167 101.18 17.5054C101.187 17.5186 101.197 17.5279 101.206 17.5392ZM99.7058 23.508C99.7459 23.508 99.7842 23.5098 99.8243 23.5098C99.7842 23.5098 99.7441 23.508 99.7058 23.508ZM100.602 23.6409C100.364 23.5679 100.107 23.5248 99.848 23.5117C100.109 23.5248 100.364 23.5679 100.602 23.6409ZM109.474 29.5948C109.58 29.7034 109.729 29.8588 109.729 29.8588C109.276 30.7597 107.912 32.6906 107.615 32.9172C106.146 33.5371 104.215 33.6214 102.522 32.9172C101.889 32.4022 100.763 30.181 100.582 29.4206C100.582 29.4206 100.754 29.2464 100.785 29.2146C105.8 34.3706 105.8 22.5491 100.785 27.7051C100.785 27.7051 100.659 27.5777 100.582 27.4972C102.602 25.4239 101.982 24.1579 100.777 23.7009C100.797 23.5623 100.818 23.4256 100.839 23.2926C104.976 24.2028 107.506 25.4876 108.966 26.4858C109.066 26.9278 109.307 27.4391 109.731 28.0197L109.476 28.2838C104.056 22.4704 104.056 35.4381 109.474 29.5948ZM109.09 25.3153C107.482 24.2927 104.929 23.109 101.009 22.2606C101.266 20.7755 101.506 19.6237 101.506 18.7659C101.506 18.882 101.505 19 101.495 19.1273C111.071 19.1273 111.171 18.9625 109.786 24.6916C109.808 24.6804 109.831 24.6729 109.855 24.6617C109.522 24.8077 109.254 25.0269 109.09 25.3153ZM109.932 24.6279C110.218 24.5118 110.549 24.4481 110.908 24.4369C110.549 24.45 110.218 24.5156 109.932 24.6279ZM110.916 24.4369C110.985 24.435 111.056 24.435 111.129 24.4369C111.249 24.4407 111.371 24.4481 111.495 24.4613C111.371 24.4481 111.249 24.4388 111.129 24.4369C111.056 24.4369 110.985 24.435 110.916 24.4369ZM111.656 24.4837C111.688 24.4893 111.721 24.495 111.756 24.5006C111.721 24.495 111.688 24.4893 111.656 24.4837Z"/><path d="M110.916 24.4369C110.985 24.435 111.057 24.435 111.13 24.4369 111.057 24.4369 110.985 24.435 110.916 24.4369zM101.495 18.4812C101.501 18.5621 101.505 18.6467 101.507 18.735 101.507 18.6467 101.503 18.5621 101.495 18.4812zM89.4159 17.6721C89.4132 17.6721 89.4106 17.6721 89.4053 17.6748 89.4106 17.6721 89.4132 17.6721 89.4159 17.6721zM76.9995 23.5941C76.9625 23.6036 76.9274 23.6131 76.8904 23.6226 76.9274 23.6131 76.9644 23.6036 76.9995 23.5941zM59.3839 39.9049C59.4422 69.2021 61.2064 92.5323 89.44 110.214 115.151 95.3416 119.277 69.1309 119.343 39.9049 113.478 39.9049 62.699 39.9049 59.3839 39.9049zM91.1403 41.8826L92.345 43.8622 94.2713 42.6243 95.8368 42.9951 97.0414 44.9747 98.9678 43.7368 100.533 44.1076 98.2461 46.9543 90.4204 45.1021 89.5766 41.5137 91.1403 41.8826zM111.282 64.3195C111.39 64.4319 111.448 64.7746 111.448 64.7746 109.728 65.6549 104.503 68.0802 104.503 68.0802L104.452 68.4286 110.099 68.3124C110.152 68.4623 110.243 68.7769 110.243 68.7769L104.247 71.5207C104.247 71.6574 104.266 71.8465 104.266 71.8465L108.656 72.2604C108.716 72.4196 108.78 72.6743 108.78 72.6743L104.565 74.6746C104.565 77.4932 110.365 85.9417 102.886 89.0057 97.9581 90.3841 95.2645 85.6364 92.9974 81.8457L93.0156 85.3592 93.5751 89.605 94.3478 90.3617 93.9706 92.9724 93.2653 93.5998 93.1231 102.134 92.7204 102.35 91.2606 100.81 90.0086 102.206 90.5079 104.157 89.5602 104.897 89.6915 106.551 89.0044 106.476 88.1551 104.247 88.6271 102.397 88.4103 102.237 86.9031 103.601 85.6802 102.833 84.3097 103.861 83.9926 103.127 85.8297 101.322 87.5008 101.067 87.7833 100.679 85.9299 99.4881 86.2853 98.1846 84.8838 96.8811 85.7458 96.6882 87.9674 97.6845C88.3556 98.4636 88.6454 99.7934 88.9898 99.9432L90.0067 99.5218 89.5056 90.7643 85.3066 85.8331 83.927 89.4552 81.9879 91.0209 79.996 89.5189 73.0232 88.1929 72.7207 87.7677 73.7194 86.9006 72.9485 85.2768 71.4632 86.1271 68.9573 85.3536 68.8844 84.6082 70.2986 84.773 70.4608 83.8066 72.3708 83.6531 72.4655 83.035 70.5064 82.3083 70.8344 81.4337 69.3655 80.6677 69.71 80.2014 71.7147 80.4598 73.6647 82.7035C73.7467 82.7035 73.8251 82.6923 73.8925 82.6623L73.9691 80.973 75.3177 80.7482 75.5291 79.0533 76.3109 80.6658 76.2253 82.2615 74.8967 83.8666C74.9988 84.0969 75.3541 85.4135 75.3541 85.6477L80.4151 86.084C80.0597 85.3536 80.1144 82.4544 80.7359 78.6563L86.2725 75.6859 84.9968 71.7023 83.1306 68.4997 78.0058 74.9817 77.2295 73.5059 76.0376 73.4254 74.7236 76.0811 73.6811 75.4293C73.6811 75.8788 73.7795 79.1825 73.6811 79.1825 73.5171 79.2294 72.4601 79.2612 72.2851 79.1825V75.6803L71.352 76.6242C71.2791 76.5512 70.9638 75.9762 70.9638 75.8245L72.2851 73.7644V71.7042L71.7165 71.4457 71.2153 70.6723 69.6826 70.6048 70.213 69.8988 72.2851 69.5298V58.229L70.9638 58.3076 69.5769 59.6373 69.8795 57.5341 72.2851 55.7718V55.547C71.9079 55.4084 71.3065 55.3373 70.8636 55.2024L70.4645 53.6704 68.7477 53.5824 69.9633 52.3819 72.2869 53.0374V49.9359C69.8175 49.9191 69.3765 50.1963 66.5608 53.5917 65.0973 51.2619 63.9674 46.5592 64.1569 43.6412 68.0971 46.5479 69.3418 47.1379 72.2869 47.2577V45.78C72.4327 45.7388 73.5244 45.737 73.6829 45.78V47.2858C73.9818 47.2877 74.2971 47.2877 74.6343 47.2877 74.6343 48.0481 74.6452 49.4321 74.6343 49.9565 74.2916 49.9584 73.9782 49.9565 73.6829 49.9528V53.8015C73.8342 53.8858 74.1222 54.1236 74.144 54.0169L74.5286 52.2733 75.9792 51.8668 75.9228 50.2449 76.2307 49.8048 77.2331 51.865 75.4781 54.6986 75.9792 55.7287 76.6189 55.444 79.9887 57.5323C79.6807 58.5923 79.3654 61.0439 79.236 61.396 78.6984 60.9839 75.6585 58.302 75.4416 58.2739L74.2242 58.5642 74.8366 57.1502C74.6507 57.0079 73.785 56.4647 73.6829 56.4104V69.7845C73.8287 69.9681 74.7072 70.7191 74.8311 70.7191 74.8985 70.7022 75.0389 70.603 75.0553 70.5187 74.9423 70.3258 74.7546 69.3163 74.7254 69.1234L75.4781 67.8349 74.7418 66.7299 75.7296 66.5463 77.2331 68.0914 76.5497 71.103 77.2131 71.3989C77.6559 70.5992 81.6052 63.6116 81.3464 63.6116 80.9491 63.5629 80.2875 63.6303 79.8101 63.6116 80.4917 62.1339 80.6283 57.89 81.494 57.2157 85.0897 53.9663 86.8958 52.9363 89.7625 52.6179 90.5188 52.5223 90.5772 52.4399 90.9052 51.6103 91.0583 51.4567 88.4576 51.5541 88.1861 51.4829 88.2827 51.157 88.6016 50.7656 88.8021 50.4322L86.1522 50.0258 85.1499 49.2523 88.372 49.6194C88.0221 49.2261 88.2772 49.3797 87.7779 47.6136 88.0859 47.3664 89.6933 46.0385 89.8318 45.8568 90.0796 45.913 96.759 47.5499 96.9576 47.5499L98.534 47.7447 97.0797 50.1232C97.4442 55.8579 93.0065 60.1449 93.1778 62.7819L92.2484 62.4317 92.2083 73.8393C93.659 75.1596 96.0518 82.4975 97.9053 85.26 101.353 90.5976 108.517 86.747 103.364 79.1132 101.056 74.3374 94.1656 68.7057 104.384 61.8773 110.072 57.7008 110.834 56.7101 111.678 54.4196 113.504 46.7727 104.136 46.4524 104.909 51.5054L107.054 52.1234 107.816 54.3428 107.555 57.7888 106.886 57.9817 105.802 54.9571 105.642 54.9795V57.4573L98.935 63.2988C98.8275 63.2988 98.627 63.2258 98.5723 63.1733L103.045 56.5022 102.977 54.7492 101.082 56.3037C100.969 56.2475 100.901 56.1932 100.841 56.1295L102.932 52.4474C102.481 44.5983 113.533 44.9953 113.325 52.9756 113.137 57.6353 108.951 60.7442 106.259 64.2708L111.282 64.3195z"/><path d="M90.5079 46.915L89.7552 47.4301L90.7959 48.2017L92.5126 47.4301L90.5079 46.915Z"/></g><path d="M14.8789 163.853C14.8789 164.02 14.7998 164.188 14.6415 164.356L14.3248 164.691C14.1665 164.858 14.0873 164.942 13.8498 164.942H6.3294V160.835H13.929C14.1665 160.835 14.2456 160.919 14.404 161.087L14.7206 161.422C14.8789 161.59 14.9581 161.757 14.9581 161.925V163.853H14.8789ZM15.4331 152.035C15.4331 151.867 15.3539 151.7 15.1956 151.532L14.8789 151.197C14.7998 151.113 14.6415 151.029 14.4831 151.029H1.34216C1.18384 151.029 1.02551 151.113 0.867187 151.281L0.629699 151.532C0.471374 151.7 0.392212 151.867 0.392212 152.035V173.743C0.392212 173.994 0.471374 174.078 0.629699 174.246L0.946349 174.581C1.10467 174.749 1.263 174.832 1.42132 174.832H3.47955C3.63787 174.832 3.7962 174.749 3.95452 174.581L4.27117 174.246C4.4295 174.078 4.50866 173.994 4.50866 173.743V155.052H14.5623C14.7998 155.052 14.8789 154.968 15.0373 154.801L15.3539 154.466C15.3539 154.382 15.4331 154.214 15.4331 154.046V152.035ZM36.807 156.477C36.807 155.807 36.5695 155.22 36.0945 154.717L33.3238 151.783C32.928 151.281 32.3739 151.029 31.6614 151.029H22.8744C22.2411 151.029 21.6869 151.281 21.2119 151.783L20.737 152.286L23.2702 155.052H30.7906C31.0281 155.052 31.1073 155.136 31.2656 155.304L32.6113 156.728C32.7697 156.896 32.8488 157.064 32.8488 157.231V169.217L35.4612 171.983L36.1737 171.228C36.6486 170.725 36.8861 170.139 36.8861 169.468V156.477H36.807ZM31.2656 170.725H23.7451C23.5077 170.725 23.4285 170.642 23.2702 170.474L21.9244 169.049C21.8452 168.965 21.7661 168.798 21.7661 168.63V156.645L19.1537 153.963L18.4413 154.717C17.9663 155.22 17.7288 155.807 17.7288 156.477V169.384C17.7288 170.055 17.9663 170.642 18.4413 171.145L21.2119 174.078C21.6869 174.581 22.2411 174.832 22.8744 174.832H31.6614C32.2947 174.832 32.8488 174.581 33.3238 174.078L33.7988 173.575L31.2656 170.725ZM52.402 165.11H53.8269C54.4602 165.11 55.0143 164.858 55.4101 164.356L57.31 162.344C57.785 161.841 58.0225 161.254 58.0225 160.584V155.89C58.0225 155.136 57.785 154.633 57.31 154.13L55.0935 151.783C54.6185 151.281 54.1435 151.113 53.5102 151.113H41.9525C41.715 151.113 41.6359 151.197 41.4776 151.364L41.1609 151.7C41.0026 151.867 40.9234 152.035 40.9234 152.203V173.91C40.9234 174.162 41.0026 174.246 41.1609 174.413L41.4776 174.749C41.6359 174.916 41.7942 175 41.9525 175H44.0107C44.1691 175 44.3274 174.916 44.4857 174.749L44.8024 174.413C44.9607 174.246 44.9607 174.162 44.9607 173.91V155.052H52.5603C52.7978 155.052 52.8769 155.136 53.0353 155.304L53.8269 156.058C53.9852 156.226 54.0644 156.309 54.0644 156.561V159.83C54.0644 160.081 53.9852 160.165 53.8269 160.332L52.9561 161.254C52.7978 161.422 52.7186 161.506 52.4811 161.506H46.9398V164.188C46.9398 164.439 47.0189 164.523 47.1772 164.691L54.3019 174.497C54.381 174.665 54.856 174.749 55.0143 174.749H57.8642C58.0225 174.749 58.1808 174.665 58.3392 174.497L58.6558 174.162C58.8141 173.994 58.9725 173.827 58.8141 173.659L52.402 165.11ZM80.2672 154.549C80.2672 154.382 80.2672 154.214 80.1088 154.046L77.8923 151.7C77.4173 151.281 76.8632 151.029 76.2299 151.029H66.8095C66.1762 151.029 65.6221 151.281 65.1471 151.783L64.6722 152.286L67.3637 155.136H75.3591C75.5966 155.136 75.7549 155.22 75.8341 155.387L77.4173 157.064C77.5756 157.231 77.734 157.315 77.8923 157.315H78.3673C78.5256 157.315 78.6839 157.231 78.8422 157.064L80.188 155.639C80.2672 155.471 80.3463 155.304 80.3463 155.136V154.549H80.2672ZM80.7421 165.278C80.7421 164.607 80.5047 164.02 80.0297 163.517L78.0506 161.506C77.5756 161.003 77.0215 160.835 76.3882 160.835H66.8095C66.5721 160.835 66.4929 160.752 66.3346 160.584L65.8596 160.081C65.7013 159.913 65.6221 159.83 65.6221 159.578V156.477L63.0889 153.795L62.2973 154.633C61.8223 155.136 61.5848 155.723 61.5848 156.393V160.249C61.5848 160.919 61.8223 161.506 62.2973 162.009L64.2763 164.02C64.7513 164.523 65.3055 164.691 65.9388 164.691H75.5966C75.7549 164.691 75.9132 164.775 76.0716 164.942L76.5465 165.445C76.7049 165.613 76.784 165.697 76.784 165.948V169.217L79.3172 171.899L80.1088 171.061C80.5838 170.558 80.8213 169.971 80.8213 169.301V165.278H80.7421ZM75.1216 170.725H67.1262C66.8887 170.725 66.7304 170.642 66.5721 170.474L64.9888 168.798C64.9096 168.714 64.7513 168.63 64.5138 168.63H64.0389C63.8805 168.63 63.7222 168.714 63.5639 168.882L62.2973 170.306C62.139 170.39 62.139 170.642 62.139 170.809V171.312C62.139 171.48 62.139 171.647 62.2973 171.815L64.5138 174.162C64.9888 174.665 65.5429 174.832 66.1762 174.832H75.5966C76.2299 174.832 76.784 174.581 77.259 174.078L77.734 173.575L75.1216 170.725ZM100.691 151.532L100.374 151.197C100.216 151.029 100.137 150.945 99.8995 150.945H97.7621C97.5246 150.945 97.4454 151.029 97.2871 151.197L96.9705 151.532C96.8121 151.7 96.8121 151.951 96.733 152.119L92.854 164.858L94.7539 171.061L100.849 152.035C100.929 151.867 100.77 151.7 100.691 151.532ZM86.9168 152.203C86.8377 152.035 86.8377 151.7 86.6793 151.616L86.3627 151.281C86.2044 151.113 86.1252 151.029 85.8877 151.029H83.7503C83.5128 151.029 83.4337 151.113 83.2753 151.281L82.9587 151.616C82.8004 151.7 82.7212 151.867 82.7212 152.035L89.2917 173.743C89.3709 173.91 89.3709 174.078 89.5292 174.246L89.8458 174.581C90.0042 174.749 90.1625 174.832 90.3208 174.832H92.5374C92.6957 174.832 92.854 174.749 93.0123 174.581L93.329 174.246C93.4873 174.078 93.5665 173.91 93.5665 173.743L86.9168 152.203ZM112.882 152.119C112.803 151.867 112.803 151.7 112.645 151.532L112.328 151.197C112.17 151.113 112.011 151.029 111.853 151.029H108.37C108.212 151.029 108.053 151.113 107.895 151.281L107.578 151.616C107.42 151.783 107.42 151.951 107.341 152.119L99.7411 173.827C99.662 173.994 99.8203 174.162 99.9786 174.329L100.295 174.665C100.454 174.832 100.533 174.916 100.77 174.916H102.828C103.066 174.916 103.145 174.832 103.303 174.665L103.62 174.329C103.778 174.162 103.858 173.91 103.858 173.743L110.032 155.723L113.12 165.11H108.766L107.499 168.965H114.465L116.207 173.743C116.286 173.91 116.286 174.246 116.444 174.329L116.761 174.665C116.919 174.832 116.999 174.916 117.236 174.916H119.373C119.611 174.916 119.69 174.832 119.848 174.665L120.165 174.329C120.323 174.162 120.403 173.994 120.403 173.827L112.882 152.119ZM134.098 165.11H135.523C136.156 165.11 136.71 164.858 137.106 164.356L139.006 162.344C139.481 161.841 139.718 161.254 139.718 160.584V155.89C139.718 155.136 139.481 154.633 139.006 154.13L136.789 151.783C136.314 151.281 135.839 151.113 135.206 151.113H123.648C123.411 151.113 123.332 151.197 123.173 151.364L122.857 151.7C122.698 151.867 122.619 152.035 122.619 152.203V173.91C122.619 174.162 122.698 174.246 122.857 174.413L123.173 174.749C123.332 174.916 123.49 175 123.648 175H125.706C125.865 175 126.023 174.916 126.181 174.749L126.498 174.413C126.656 174.246 126.736 174.162 126.736 173.91V155.052H134.335C134.573 155.052 134.652 155.136 134.81 155.304L135.523 156.058C135.681 156.226 135.76 156.309 135.76 156.561V159.83C135.76 160.081 135.681 160.165 135.523 160.332L134.652 161.254C134.493 161.422 134.414 161.506 134.177 161.506H128.635V164.188C128.635 164.439 128.715 164.523 128.873 164.691L136.077 174.497C136.235 174.665 136.631 174.749 136.789 174.749H139.639C139.797 174.749 139.956 174.665 140.114 174.497L140.431 174.162C140.589 173.994 140.747 173.827 140.589 173.659L134.098 165.11ZM158.401 161.925C158.401 161.757 158.321 161.59 158.163 161.422L157.926 161.087C157.767 160.919 157.688 160.835 157.451 160.835H149.851V164.942H157.451C157.688 164.942 157.767 164.858 157.926 164.691L158.242 164.356C158.401 164.188 158.48 164.02 158.48 163.853V161.925H158.401ZM159.034 171.731C159.034 171.564 158.955 171.396 158.796 171.228L158.48 170.893C158.321 170.725 158.242 170.642 158.005 170.642H147.951V155.052H157.926C158.163 155.052 158.242 154.968 158.401 154.801L158.717 154.466C158.876 154.298 158.955 154.13 158.955 153.963V152.035C158.955 151.867 158.876 151.7 158.717 151.532L158.401 151.197C158.321 151.113 158.163 151.029 157.926 151.029H144.864C144.626 151.029 144.547 151.113 144.389 151.281L144.072 151.616C143.914 151.783 143.835 151.951 143.835 152.119V173.827C143.835 173.994 143.914 174.162 144.072 174.329L144.389 174.665C144.547 174.832 144.626 174.916 144.864 174.916H157.926C158.163 174.916 158.242 174.832 158.401 174.665L158.717 174.329C158.876 174.162 158.955 173.994 158.955 173.827V171.731H159.034ZM177.637 152.035C177.637 151.867 177.558 151.7 177.4 151.532L177.083 151.197C176.925 151.029 176.845 150.945 176.608 150.945H161.567C161.33 150.945 161.25 151.029 161.092 151.197L160.775 151.532C160.617 151.7 160.538 151.867 160.538 152.035V154.046C160.538 154.214 160.617 154.382 160.775 154.549L161.092 154.885C161.25 155.052 161.33 155.136 161.567 155.136H167.108V173.827C167.108 174.078 167.188 174.162 167.346 174.329L167.663 174.665C167.821 174.832 167.979 174.916 168.138 174.916H170.196C170.354 174.916 170.512 174.832 170.671 174.665L170.987 174.329C171.146 174.162 171.225 174.078 171.225 173.827V155.052H176.766C177.004 155.052 177.083 154.968 177.241 154.801L177.558 154.466C177.716 154.298 177.795 154.13 177.795 153.963V152.035H177.637Z" fill="#191B21"/><defs><clipPath id="clip0"><path d="M40.9844 0.368774H137.203V120.642H40.9844V0.368774Z" fill="#fff"/></clipPath></defs></svg>