<svg viewBox="0 0 29 26" fill="none" xmlns="http://www.w3.org/2000/svg">
    <path d="M5 12.9985C5 12.2393 5.07638 11.4984 5.22304 10.782C5.3697 10.0655 5.5851 9.37509 5.86466 8.71671C6.1427 8.05833 6.48337 7.43355 6.87904 6.84849C7.2747 6.26344 7.72384 5.71809 8.22186 5.22011C8.71988 4.72212 9.26526 4.27302 9.85036 3.87738C10.4355 3.48174 11.0603 3.14109 11.7187 2.86307C12.3771 2.58506 13.0676 2.36814 13.7841 2.2215C14.5006 2.07485 15.2385 2 15.9992 2C16.7585 2 17.4994 2.07638 18.2159 2.22302C18.9324 2.36967 19.6229 2.58506 20.2813 2.8646C20.9397 3.14415 21.5645 3.48327 22.1496 3.87891C22.7347 4.27455 23.2801 4.72365 23.7781 5.22164C24.2762 5.71962 24.7253 6.26496 25.121 6.85002C25.5166 7.43508 25.8573 8.05985 26.1353 8.71823C26.4134 9.37661 26.6303 10.0671 26.777 10.7835C26.9236 11.4999 27 12.2408 27 13C27 13.7592 26.9236 14.5001 26.777 15.2165C26.6303 15.9329 26.4149 16.6234 26.1353 17.2818C25.8573 17.9401 25.5166 18.5649 25.121 19.15C24.7253 19.735 24.2762 20.2804 23.7781 20.7784C23.2801 21.2763 22.7347 21.7255 22.1496 22.1211C21.5645 22.5167 20.9397 22.8574 20.2813 23.1354C19.6229 23.4134 18.9324 23.6303 18.2159 23.777C17.4994 23.9236 16.7585 24 15.9992 24C15.24 24 14.4991 23.9236 13.7826 23.777C13.0661 23.6303 12.3756 23.4149 11.7172 23.1354C11.0587 22.8574 10.4339 22.5167 9.84883 22.1211C9.26373 21.7255 8.71835 21.2763 8.22033 20.7784C7.72231 20.2804 7.27318 19.735 6.87751 19.15C6.48184 18.5649 6.14117 17.9401 5.86313 17.2818" stroke="#fff" stroke-width="2.2" stroke-miterlimit="10"/>
    <path d="M10 11.3195L4.53231 14L2 8" stroke="#fff" stroke-width="2.2" stroke-miterlimit="10"/>
</svg>
