<svg   viewBox="0 0 21 17" fill="none" xmlns="http://www.w3.org/2000/svg">
    <path d="M6.66769 16.4183C14.1286 16.4183 18.2094 10.237 18.2094 4.87657C18.2094 4.701 18.2094 4.52623 18.1975 4.35224C18.9914 3.77801 19.6767 3.06701 20.2213 2.25253C19.481 2.58057 18.6956 2.79571 17.8915 2.89074C18.7383 2.38379 19.372 1.58645 19.6748 0.647097C18.8786 1.1196 18.0074 1.45259 17.099 1.63171C16.4874 0.981378 15.6785 0.550746 14.7975 0.406451C13.9165 0.262156 13.0126 0.412242 12.2254 0.833485C11.4383 1.25473 10.812 1.92364 10.4434 2.73672C10.0747 3.54979 9.98435 4.46169 10.1862 5.33131C8.57345 5.25046 6.99573 4.83136 5.55547 4.10122C4.1152 3.37107 2.84458 2.3462 1.8261 1.09314C1.30737 1.98614 1.14849 3.04327 1.38182 4.04929C1.61514 5.05532 2.22312 5.9346 3.08197 6.5081C2.43643 6.48897 1.80496 6.31483 1.24086 6.00038C1.24086 6.01698 1.24086 6.03438 1.24086 6.05178C1.24112 6.98832 1.56532 7.89594 2.15848 8.6207C2.75163 9.34546 3.57722 9.84274 4.49522 10.0282C3.89802 10.1911 3.27144 10.2149 2.66361 10.0978C2.92282 10.9038 3.42746 11.6086 4.10697 12.1137C4.78647 12.6188 5.60685 12.8989 6.45337 12.9148C5.01697 14.0437 3.24256 14.6565 1.41564 14.6547C1.0929 14.6541 0.770469 14.6345 0.450012 14.5961C2.30506 15.7866 4.46352 16.418 6.66769 16.4151" fill="#191B21"/>
</svg>
